<svg xmlns="http://www.w3.org/2000/svg" width="720" height="160" viewBox="0 0 720 160" preserveAspectRatio="none">
  <defs>
    <linearGradient id="g" x1="0" y1="0" x2="0" y2="1">
      <stop offset="0%" stop-color="#1b5e20" stop-opacity="0"/>
      <stop offset="40%" stop-color="#1b5e20" stop-opacity="0.55"/>
      <stop offset="100%" stop-color="#0d3318" stop-opacity="0.9"/>
    </linearGradient>
    <linearGradient id="leaf" x1="0" y1="0" x2="0" y2="1">
      <stop offset="0%" stop-color="#66bb6a"/>
      <stop offset="100%" stop-color="#2e7d32"/>
    </linearGradient>
    <linearGradient id="trunk" x1="0" y1="0" x2="1" y2="0">
      <stop offset="0%" stop-color="#5d4037"/>
      <stop offset="50%" stop-color="#3e2723"/>
      <stop offset="100%" stop-color="#4e342e"/>
    </linearGradient>
  </defs>
  <!-- Soft hill wash -->
  <path d="M0 110 C60 90 120 100 180 95 C240 90 280 105 360 98 C440 90 500 108 580 100 C640 95 690 105 720 100 L720 160 L0 160 Z" fill="url(#g)"/>
  <!-- Trees (cartoon Tensura-adjacent soft blobs) -->
  <g opacity="0.95">
    <rect x="48" y="78" width="8" height="42" rx="2" fill="url(#trunk)"/>
    <ellipse cx="52" cy="72" rx="28" ry="32" fill="url(#leaf)"/>
    <ellipse cx="38" cy="82" rx="16" ry="18" fill="#43a047"/>
    <ellipse cx="68" cy="80" rx="14" ry="16" fill="#81c784" opacity="0.85"/>
  </g>
  <g opacity="0.9">
    <rect x="168" y="88" width="7" height="36" rx="2" fill="url(#trunk)"/>
    <ellipse cx="171" cy="80" rx="22" ry="26" fill="#388e3c"/>
    <ellipse cx="158" cy="88" rx="12" ry="14" fill="#66bb6a"/>
  </g>
  <g opacity="0.95">
    <rect x="290" y="70" width="9" height="50" rx="2" fill="url(#trunk)"/>
    <ellipse cx="294" cy="62" rx="34" ry="38" fill="url(#leaf)"/>
    <ellipse cx="274" cy="74" rx="18" ry="20" fill="#2e7d32"/>
    <ellipse cx="316" cy="70" rx="16" ry="18" fill="#a5d6a7" opacity="0.7"/>
  </g>
  <g opacity="0.88">
    <rect x="420" y="85" width="7" height="38" rx="2" fill="url(#trunk)"/>
    <ellipse cx="423" cy="78" rx="24" ry="28" fill="#43a047"/>
    <ellipse cx="438" cy="86" rx="12" ry="14" fill="#66bb6a"/>
  </g>
  <g opacity="0.92">
    <rect x="540" y="75" width="8" height="46" rx="2" fill="url(#trunk)"/>
    <ellipse cx="544" cy="68" rx="30" ry="34" fill="url(#leaf)"/>
    <ellipse cx="528" cy="78" rx="14" ry="16" fill="#388e3c"/>
  </g>
  <g opacity="0.9">
    <rect x="660" y="82" width="7" height="40" rx="2" fill="url(#trunk)"/>
    <ellipse cx="663" cy="74" rx="26" ry="30" fill="#2e7d32"/>
    <ellipse cx="648" cy="84" rx="13" ry="15" fill="#81c784" opacity="0.8"/>
  </g>
  <!-- Bushes / soft ground blobs -->
  <ellipse cx="100" cy="128" rx="28" ry="12" fill="#33691e" opacity="0.85"/>
  <ellipse cx="230" cy="132" rx="22" ry="10" fill="#558b2f" opacity="0.8"/>
  <ellipse cx="380" cy="130" rx="32" ry="11" fill="#33691e" opacity="0.85"/>
  <ellipse cx="500" cy="134" rx="20" ry="9" fill="#689f38" opacity="0.75"/>
  <ellipse cx="620" cy="128" rx="26" ry="11" fill="#33691e" opacity="0.85"/>
  <!-- Edge match helpers (same at 0 and 720) for seamless tile -->
  <ellipse cx="0" cy="135" rx="18" ry="8" fill="#2e7d32" opacity="0.5"/>
  <ellipse cx="720" cy="135" rx="18" ry="8" fill="#2e7d32" opacity="0.5"/>
</svg>
