<svg xmlns="http://www.w3.org/2000/svg" width="720" height="48" viewBox="0 0 720 48" preserveAspectRatio="none">
  <defs>
    <linearGradient id="dirt" x1="0" y1="0" x2="0" y2="1">
      <stop offset="0%" stop-color="#a1887f"/>
      <stop offset="35%" stop-color="#8d6e63"/>
      <stop offset="100%" stop-color="#5d4037"/>
    </linearGradient>
  </defs>
  <path d="M0 10 C40 4 80 14 120 8 C160 2 200 12 240 6 C280 0 320 10 360 5 C400 0 440 12 480 6 C520 1 560 11 600 5 C640 0 680 10 720 6 L720 48 L0 48 Z" fill="url(#dirt)"/>
  <!-- stones -->
  <ellipse cx="60" cy="28" rx="10" ry="5" fill="#6d4c41" opacity="0.55"/>
  <ellipse cx="180" cy="32" rx="8" ry="4" fill="#4e342e" opacity="0.45"/>
  <ellipse cx="310" cy="26" rx="12" ry="5" fill="#6d4c41" opacity="0.5"/>
  <ellipse cx="450" cy="30" rx="9" ry="4" fill="#5d4037" opacity="0.5"/>
  <ellipse cx="580" cy="27" rx="11" ry="5" fill="#6d4c41" opacity="0.45"/>
  <ellipse cx="680" cy="31" rx="8" ry="4" fill="#4e342e" opacity="0.4"/>
  <!-- light ruts -->
  <path d="M0 22 Q180 18 360 24 T720 20" fill="none" stroke="#3e2723" stroke-width="1.5" opacity="0.25"/>
  <path d="M0 34 Q200 30 400 36 T720 32" fill="none" stroke="#bcaaa4" stroke-width="1" opacity="0.2"/>
</svg>
