<svg xmlns="http://www.w3.org/2000/svg" width="720" height="160" viewBox="0 0 720 160" preserveAspectRatio="none">
  <defs>
    <linearGradient id="void" x1="0" y1="0" x2="0" y2="1">
      <stop offset="0%" stop-color="#7e57c2" stop-opacity="0.25"/>
      <stop offset="100%" stop-color="#0a0618" stop-opacity="0.95"/>
    </linearGradient>
    <linearGradient id="crystal" x1="0" y1="0" x2="0" y2="1">
      <stop offset="0%" stop-color="#e1bee7"/>
      <stop offset="50%" stop-color="#7e57c2"/>
      <stop offset="100%" stop-color="#311b92"/>
    </linearGradient>
  </defs>
  <path d="M0 120 C120 100 240 125 360 108 C480 90 600 122 720 110 L720 160 L0 160 Z" fill="url(#void)"/>
  <!-- spires -->
  <g opacity="0.95">
    <polygon points="90,145 100,50 110,145" fill="url(#crystal)"/>
    <polygon points="100,50 108,70 100,65 92,70" fill="#f3e5f5" opacity="0.7"/>
  </g>
  <g opacity="0.9">
    <polygon points="220,148 235,40 250,148" fill="url(#crystal)"/>
    <polygon points="235,40 248,68 235,60 222,68" fill="#ce93d8" opacity="0.65"/>
  </g>
  <g opacity="0.95">
    <polygon points="400,145 412,55 424,145" fill="url(#crystal)"/>
  </g>
  <g opacity="0.9">
    <polygon points="520,148 540,35 560,148" fill="url(#crystal)"/>
    <polygon points="540,35 555,62 540,55 525,62" fill="#f3e5f5" opacity="0.6"/>
  </g>
  <g opacity="0.92">
    <polygon points="650,146 662,58 674,146" fill="url(#crystal)"/>
  </g>
  <!-- stars / motes -->
  <circle cx="50" cy="40" r="1.5" fill="#fffde7" opacity="0.9"/>
  <circle cx="160" cy="55" r="1.2" fill="#e1bee7" opacity="0.8"/>
  <circle cx="300" cy="30" r="1.8" fill="#fff" opacity="0.85"/>
  <circle cx="470" cy="48" r="1.3" fill="#fffde7" opacity="0.9"/>
  <circle cx="600" cy="35" r="1.6" fill="#ce93d8" opacity="0.85"/>
  <circle cx="700" cy="60" r="1.2" fill="#fff" opacity="0.75"/>
  <!-- glow rings -->
  <ellipse cx="235" cy="130" rx="28" ry="8" fill="#7e57c2" opacity="0.2"/>
  <ellipse cx="540" cy="128" rx="32" ry="9" fill="#9575cd" opacity="0.18"/>
</svg>
